# xmcd CD database file
#
# Track frame offsets:
#	150
#	18652
#	39654
#	58539
#	83184
#	130480
#	150772
#	169329
#	186875
#	207460
#	220952
#	253678
#
# Disc length: 3654 seconds
#
# Revision: 0
# Processed by: cddbd v1.5.2PL0 Copyright (c) Steve Scherf et al.
# Submitted via: CDex 1.75
#
DISCID=aa0e440c
DTITLE=Zac Brown Band - Pass The Jar [CD1]
DYEAR=2010
DGENRE=Country
TTITLE0=Whatever It Is
TTITLE1=Let It Go
TTITLE2=It's Not OK
TTITLE3=Jolene
TTITLE4=Who Knows
TTITLE5=The Night They Drove Old Dixie Down
TTITLE6=Sic 'Em On A Chicken
TTITLE7=Where the Boat Leaves From - One Love
TTITLE8=Trying To Drive (feat. Aslyn)
TTITLE9=Alabama Jubilee
TTITLE10=Blackbird  (feat. Matt Mangano on bass)
TTITLE11=The Devil Went Down To Georgia
EXTD=YEAR: 2010
EXTT0=
EXTT1=
EXTT2=
EXTT3=
EXTT4=
EXTT5=
EXTT6=
EXTT7=
EXTT8=
EXTT9=
EXTT10=
EXTT11=
PLAYORDER=
